HIERARCHY
ROOT Hips
{
  OFFSET 147.187 94.3768 -79.4515
  CHANNELS 6 Xposition Yposition Zposition Zrotation Xrotation Yrotation
  JOINT RightUpLeg
  {
    OFFSET -8.9458 -8.66707 0.101652
    CHANNELS 3 Zrotation Xrotation Yrotation
    JOINT RightLeg
    {
      OFFSET 0 -44.4227 1.3727
      CHANNELS 3 Zrotation Xrotation Yrotation
      JOINT RightFoot
      {
        OFFSET 0.253549 -42.0924 -1.46059
        CHANNELS 3 Zrotation Xrotation Yrotation
        JOINT RightToes
        {
          OFFSET 0.04 -4.41509 8.4991
          CHANNELS 3 Zrotation Xrotation Yrotation
          End Site
          {
            OFFSET -0.08 -0.137448 9.77979
          }
        }
      }
    }
  }
  JOINT Spine
  {
    OFFSET 0 11.8905 0
    CHANNELS 3 Zrotation Xrotation Yrotation
    JOINT Spine1
    {
      OFFSET 0 25.6574 0.127663
      CHANNELS 3 Zrotation Xrotation Yrotation
      JOINT HEad
      {
        OFFSET 0 8.73416 0.011341
        CHANNELS 3 Zrotation Xrotation Yrotation
        End Site
        {
          OFFSET -0.29 12.7742 2.51395
        }
      }
      JOINT LeftShoulder1
      {
        OFFSET 8.99 -0.362252 -0.22
        CHANNELS 3 Zrotation Xrotation Yrotation
        JOINT LeftArm
        {
          OFFSET 10.2827 -0.00338 0.322123
          CHANNELS 3 Zrotation Xrotation Yrotation
          JOINT LeftForeArm
          {
            OFFSET 32.7669 0.099144 -1.42434
            CHANNELS 3 Zrotation Xrotation Yrotation
            JOINT LeftHand
            {
              OFFSET 27.5643 0.085362 1.02216
              CHANNELS 3 Zrotation Xrotation Yrotation
              End Site
              {
                OFFSET 16.7443 -0.6 1.50291
              }
            }
          }
        }
      }
      JOINT RightShoulder
      {
        OFFSET -8.99 -0.362252 -0.22
        CHANNELS 3 Zrotation Xrotation Yrotation
        JOINT RightArm
        {
          OFFSET -10.2827 -0.00338 0.322123
          CHANNELS 3 Zrotation Xrotation Yrotation
          JOINT RightForeArm
          {
            OFFSET -32.8971 0.099144 -1.42434
            CHANNELS 3 Zrotation Xrotation Yrotation
            JOINT RightHand
            {
              OFFSET -27.4921 0.085362 1.02216
              CHANNELS 3 Zrotation Xrotation Yrotation
              End Site
              {
                OFFSET -16.6312 -0.6 1.50291
              }
            }
          }
        }
      }
    }
  }
  JOINT LeftUpLeg
  {
    OFFSET 8.9458 -8.66707 0.101652
    CHANNELS 3 Zrotation Xrotation Yrotation
    JOINT LeftLeg
    {
      OFFSET 0 -44.4227 1.3727
      CHANNELS 3 Zrotation Xrotation Yrotation
      JOINT LeftFoot
      {
        OFFSET -0.253549 -42.0924 -1.46059
        CHANNELS 3 Zrotation Xrotation Yrotation
        JOINT LeftToes
        {
          OFFSET -0.04 -4.41509 8.4991
          CHANNELS 3 Zrotation Xrotation Yrotation
          End Site
          {
            OFFSET 0.08 -0.047448 9.77979
          }
        }
      }
    }
  }
}
MOTION
Frames:	9
Frame Time:	0.0166667
147.187 94.3768 -79.4515 1.58701 4.41426 -88.4799 -13.0369 -5.0208 0.858298 4.40095 29.3728 -14.6128 13.7656 -6.478 -0.307565 -8.986 -15.4308 -3.20105 -0.783528 6.99879 4.49239 -0.875644 13.7457 9.20362 -5.91244 -8.11277 4.9399 7.95139e-016 4.57205e-015 -0 -75.5481 -37.027 -36.5786 15.4508 21.4481 -136.396 42.8894 11.7922 9.31659 13.6887 3.52592 18.5976 78.8213 -27.3212 38.1826 -16.3869 42.7614 142.136 -19.0983 15.6066 -39.3588 18.6943 -25.4403 5.76453 5.9742 26.3595 -15.6425 -6.99768 0.89064 0.501868 7.71022 -10.0226 0.825686 
147.018 93.9815 -80.3537 1.272 4.25123 -87.7132 -13.3145 -4.5971 1.38029 5.36736 31.4469 -13.5242 17.1829 -14.9878 0.906585 -1.25252 -2.91371 -2.73801 -0.806251 6.96619 4.53058 -0.890313 13.7013 9.24395 -6.21318 -8.08902 5.02297 -1.59028e-015 -1.39149e-015 4.77083e-015 -74.9756 -36.7509 -35.5839 15.7074 20.772 -136.175 42.9081 11.2085 7.77215 13.3927 3.46639 18.568 79.4432 -27.3914 38.4394 -16.9818 42.8328 142.452 -19.7811 15.8213 -39.3643 18.9114 -25.5094 5.05293 5.73056 26.2673 -14.4146 -6.94711 3.33805 0.63091 10.5419 -14.1042 -0.551645 
146.916 93.7352 -81.1818 0.746852 4.26839 -87.5832 -13.174 -3.53477 1.80478 6.03392 30.6072 -14.0916 17.6439 -13.4151 0.697198 -5.17371 -9.25795 -0.683837 -0.576964 7.08312 4.63239 -0.787699 13.9557 9.48756 -6.43301 -9.0871 4.70111 3.18055e-015 -1.78906e-015 -1.59028e-015 -75.4516 -37.4143 -35.2573 15.0545 21.0154 -136.699 41.3303 11.3372 8.27341 12.905 3.38862 18.6417 79.6914 -27.4668 38.9771 -16.7011 43.2464 141.908 -20.3453 15.7737 -38.1368 19.5265 -25.105 4.14916 5.13088 26.8331 -14.2303 -6.71027 2.18631 0.548037 9.66635 -12.6494 0.530028 
146.732 93.5023 -82.0627 0.370908 4.46549 -87.177 -13.0042 -2.85771 -1.10441 6.92454 31.0862 -12.0407 13.2111 -15.653 0.71849 -3.83568 -7.24085 -3.66899 -0.328834 7.11717 4.76254 -0.544855 14.0512 9.7661 -6.96494 -8.89649 4.70316 7.95139e-016 7.95139e-016 -6.36111e-015 -75.0333 -37.5097 -34.9124 14.8372 20.7933 -136.298 42.2566 11.0422 7.38501 12.6978 3.30392 18.3519 80.2984 -28.3791 39.9022 -16.7597 44.2592 142.245 -19.7583 15.6743 -38.5768 19.9347 -24.8919 3.64323 5.51953 26.9275 -14.0303 -6.8296 2.30379 0.56457 9.62795 -12.8483 -0.416578 
146.562 93.2832 -82.904 0.179142 4.28455 -87.118 -13.9782 -2.42481 -2.16714 10.0917 30.4383 -14.5503 8.59457 -11.8827 0.121953 -9.40782 -16.1089 -3.03543 -0.368391 7.08828 4.80867 -0.58259 13.9898 9.85746 -7.0586 -8.60913 4.75977 -1.59028e-015 2.38542e-015 3.18055e-015 -74.4502 -36.7331 -34.0866 15.5436 19.214 -136.871 42.2092 11.4527 8.49286 12.5799 3.22964 18.0198 80.3732 -28.0802 40.8573 -16.4304 45.2954 141.605 -20.6281 15.8476 -38.0741 20.3162 -24.8001 2.51677 4.72611 27.7227 -14.1316 -5.97598 0.150523 0.391433 7.38702 -9.39936 1.81163 
146.376 93.1729 -83.6643 0.164118 4.35883 -87.4402 -14.6105 -2.14517 -2.97294 12.7953 30.4056 -15.2804 5.96178 -14.5561 0.147863 -6.91115 -12.1528 -2.64217 -0.44725 7.06848 5.11481 -0.511855 13.9452 10.4274 -7.04497 -8.65173 4.56272 -7.95139e-016 0 -3.18055e-015 -74.3307 -36.8879 -33.704 15.7362 18.9356 -137.378 41.9456 11.6078 8.94232 12.0233 3.02581 17.3405 81.203 -27.968 41.5942 -16.6461 45.5761 141.802 -20.3707 15.7598 -38.0186 20.7931 -24.5466 2.52374 4.98265 27.6873 -13.7886 -6.31551 0.409295 0.427295 7.57531 -9.68335 1.60541 
146.183 93.0193 -84.3899 0.170482 4.45742 -87.6852 -14.8136 -2.05332 -2.47918 14.5562 30.3676 -16.0083 5.16259 -14.9765 0.115471 -7.30222 -12.785 -2.53672 -0.364181 6.79266 5.04007 -0.363404 13.4206 10.238 -6.57245 -8.12445 5.08927 1.59028e-015 1.98785e-015 6.36111e-015 -73.0704 -36.9293 -32.461 15.2589 18.3877 -137.283 41.8146 11.7485 9.34101 12.5126 3.25662 18.2659 79.7872 -27.4143 41.0038 -16.8307 44.0978 141.248 -20.3987 15.8511 -38.4721 21.3671 -24.165 2.01119 4.57805 27.2959 -12.8264 -5.55573 1.36918 0.414178 8.60824 -10.8585 2.27179 
145.962 93.1361 -85.0124 -0.0391361 4.49267 -88.2155 -13.8418 -1.81847 -3.1138 12.3333 30.5672 -13.5605 6.77554 -14.4608 0.192704 -8.41814 -14.5358 -3.19505 -0.15615 6.68302 5.10125 -0.270621 13.2357 10.3834 -6.41393 -7.61419 5.52009 0 7.95139e-015 -0 -72.832 -38.5818 -32.2497 14.2774 19.2174 -136.877 41.2701 11.2496 8.03834 11.7601 3.07701 17.978 80.7345 -27.2741 41.0504 -16.9174 44.55 141.847 -18.9889 15.639 -39.7488 21.726 -23.1982 1.31222 4.39906 27.0024 -12.4368 -5.86031 -0.501329 0.354237 6.59375 -8.15731 3.05196 
145.727 93.2267 -85.5717 -0.213111 4.6869 -88.3892 -12.9522 -1.47107 -2.54114 11.761 30.5206 -12.7561 7.45191 -15.327 0.285963 -7.68936 -13.3497 -4.04672 0.0563053 6.56693 5.01457 -0.15709 13.0439 10.2186 -5.76433 -7.10997 6.09401 -2.38542e-015 -1.39149e-015 3.18055e-015 -71.7235 -37.8321 -31.7448 14.7186 17.84 -136.958 41.2926 11.2965 8.1655 11.9757 3.14529 18.1729 80.0827 -27.7796 40.5397 -16.898 44.6891 142.014 -19.6161 15.7026 -38.9844 22.3418 -22.2574 0.362274 3.67974 25.9017 -10.7791 -5.30926 0.69007 0.367504 7.45115 -9.31592 2.63103 
